<svg t="1587490096500" class="icon" viewBox="0 0 1024 1024" version="1.1" xmlns="http://www.w3.org/2000/svg" p-id="3293" width="32" height="32"><path d="M572.6 586.4L734.3 469c5.6-4.1 8-11.3 5.8-17.9-2.1-6.6-8.3-11.1-15.2-11.1H525.1l-61.7-190c-2.1-6.6-8.3-11.1-15.2-11.1s-13.1 4.5-15.2 11.1l-61.7 190h-200c-6.9 0-13.1 4.5-15.2 11.1s0.2 13.8 5.8 17.9l78.6 57.1c7.1 5.2 17.2 3.6 22.3-3.5 5.2-7.1 3.6-17.2-3.5-22.3L220.6 472h162.2c6.9 0 13.1-4.5 15.2-11.1l50.1-154.3 50.1 154.3c2.1 6.6 8.3 11.1 15.2 11.1h162.2l-131.2 95.3c-5.6 4.1-8 11.3-5.8 17.9l50.1 154.3-131.2-95.3c-5.6-4.1-13.2-4.1-18.8 0l-131.2 95.3 50.1-154.3c2.1-6.6-0.2-13.8-5.8-17.9l-15.9-11.6c-7.1-5.2-17.2-3.6-22.3 3.5-5.2 7.1-3.6 17.2 3.5 22.3l6.5 4.7-61.7 190c-2.1 6.6 0.2 13.8 5.8 17.9 5.6 4.1 13.2 4.1 18.8 0l161.7-117.4 161.7 117.4c2.8 2 6.1 3.1 9.4 3.1s6.6-1 9.4-3.1c5.6-4.1 8-11.3 5.8-17.9l-61.9-189.8zM694 399.4l202 0.6h0.1c8.8 0 16-7.1 16-16 0-8.8-7.1-16-16-16l-202-0.6h-0.1c-8.8 0-16 7.1-16 16 0 8.8 7.1 15.9 16 16z" p-id="3294"></path><path d="M576 399l42 0.1h0.1c8.8 0 16-7.1 16-16 0-8.8-7.1-16-16-16l-42-0.1h-0.1c-8.8 0-16 7.1-16 16 0 8.8 7.1 16 16 16zM896 497.1l-127-0.4h-0.1c-8.8 0-16 7.1-16 16 0 8.8 7.1 16 16 16l127 0.4h0.1c8.8 0 16-7.1 16-16 0-8.8-7.1-16-16-16zM896 625.4l-220-0.4c-8.8 0-16 7.1-16 16 0 8.8 7.1 16 16 16l220 0.4c8.8 0 16-7.1 16-16 0-8.8-7.1-16-16-16z" p-id="3295"></path></svg>