<svg t="1587141414321" class="icon" viewBox="0 0 1024 1024" version="1.1" xmlns="http://www.w3.org/2000/svg" p-id="4009" width="32" height="32"><path d="M352.774579 533.818935c-5.627161 0-11.225669-2.14178-15.510252-6.426363-8.569166-8.569166-8.569166-22.450315 0-31.019481L655.715169 177.935552c8.569166-8.569166 22.450315-8.569166 31.019481 0 8.569166 8.569166 8.569166 22.450315 0 31.019481L368.283808 527.392572C363.999225 531.677155 358.400716 533.818935 352.774579 533.818935z" p-id="4010"></path><path d="M670.049642 851.095022c-5.627161 0-11.225669-2.14178-15.510252-6.426363L337.264327 527.392572c-8.569166-8.569166-8.569166-22.450315 0-31.019481s22.450315-8.569166 31.019481 0l317.275064 317.275064c8.569166 8.569166 8.569166 22.450315 0 31.019481C681.275311 848.952218 675.676803 851.095022 670.049642 851.095022z" p-id="4011"></path></svg>