<svg t="1587555309076" class="icon" viewBox="0 0 1024 1024" version="1.1" xmlns="http://www.w3.org/2000/svg" p-id="5164" width="32" height="32"><path d="M844.8 413.866667c-14.933333-19.2-38.4-29.866667-61.866667-29.866667h-149.333333c19.2-40.533333 49.066667-106.666667 49.066667-149.333333 0-29.866667-23.466667-57.6-59.733334-72.533334-38.4-17.066667-78.933333-10.666667-104.533333 14.933334-17.066667 17.066667-23.466667 27.733333-32 44.8-8.533333 17.066667-23.466667 40.533333-55.466667 85.333333-12.8 14.933333-51.2 49.066667-104.533333 87.466667-4.266667 2.133333-8.533333 6.4-10.666667 10.666666H192c-23.466667 0-42.666667 19.2-42.666667 42.666667v384c0 23.466667 19.2 42.666667 42.666667 42.666667h509.866667c49.066667 0 91.733333-34.133333 100.266666-83.2l59.733334-311.466667c4.266667-23.466667-2.133333-49.066667-17.066667-66.133333zM192 448h106.666667v384H192V448z m627.2 23.466667l-59.733333 311.466666c-4.266667 27.733333-29.866667 49.066667-57.6 49.066667H341.333333V452.266667c0-8.533333 4.266667-17.066667 10.666667-21.333334 40.533333-29.866667 93.866667-72.533333 113.066667-96 34.133333-46.933333 49.066667-72.533333 59.733333-91.733333 8.533333-14.933333 12.8-23.466667 23.466667-34.133333 14.933333-14.933333 40.533333-12.8 57.6-6.4 21.333333 8.533333 34.133333 23.466667 34.133333 34.133333 0 40.533333-44.8 130.133333-61.866667 160-4.266667 6.4-4.266667 14.933333 0 21.333333 4.266667 6.4 10.666667 10.666667 19.2 10.666667h185.6c10.666667 0 21.333333 4.266667 29.866667 12.8 6.4 6.4 8.533333 19.2 6.4 29.866667z" p-id="5165" fill="#707070"></path></svg>