<svg t="1588151811286" class="icon" viewBox="0 0 1024 1024" version="1.1" xmlns="http://www.w3.org/2000/svg" p-id="3775" width="32" height="32"><path d="M281.504 367.754v0c0 0 31.971-1.032 31.971 31.971v446.554c0 0 0 18.563-22.688 18.563h-109.317c0 0-26.814 0-26.814-26.814l-25.782-444.491c0 0 0-25.782 26.813-25.782h125.818zM841.501 367.754v0c0 0 53.628-5.156 53.628 50.533 0 0 0 102.099-78.379 368.174 0 0-24.751 78.379-54.659 78.379h-315.578c-22.688 0-78.379-15.47-78.379-56.722v-440.365c0 0 155.726-92.817 155.726-240.293 5.156-7.219-7.219-53.627 51.565-53.627 0 0 137.163-8.249 55.69 293.921h210.385zM571.3 113.024c-2.063 0-4.125 0-6.188 1.032 0 1.032 0 3.094 0 4.125-1.032 6.188-1.032 10.314-2.063 15.47-2.063 94.879-68.066 208.323-156.758 252.669v382.613c0 29.907 10.314 56.722 48.471 56.722h242.356c45.378 0 66.003-1.032 81.472-50.533 25.782-85.598 50.533-198.009 67.034-286.702 3.094-15.47 6.188-25.782 8.249-44.347 2.063-28.878-5.156-38.159-31.971-38.159h-208.323c-25.782 0-31.971-3.094-25.782-26.814l6.187-21.657c16.501-62.909 40.221-150.571 9.282-213.479-5.156-11.344-17.531-26.814-31.971-30.939zM169.093 406.944l23.72 418.708h81.473v-418.708h-105.193z" p-id="3776" fill="#515151"></path></svg>